<svg xmlns="http://www.w3.org/2000/svg" viewBox="0 0 400 300" width="400" height="300">
  <!-- Bar/Lounge icon with maritime theme -->
  <defs>
    <linearGradient id="oceanGradBar" x1="0%" y1="0%" x2="0%" y2="100%">
      <stop offset="0%" style="stop-color:#0a3d62;stop-opacity:0.08" />
      <stop offset="100%" style="stop-color:#0e6e8e;stop-opacity:0.12" />
    </linearGradient>
    <linearGradient id="glassGrad" x1="0%" y1="0%" x2="100%" y2="0%">
      <stop offset="0%" style="stop-color:#0e6e8e;stop-opacity:0.2" />
      <stop offset="50%" style="stop-color:#0e6e8e;stop-opacity:0.05" />
      <stop offset="100%" style="stop-color:#0e6e8e;stop-opacity:0.2" />
    </linearGradient>
  </defs>

  <!-- Background -->
  <rect width="400" height="300" fill="#f7fdff"/>

  <!-- Decorative wave (subtle) -->
  <g opacity="0.06">
    <path d="M0,200 Q100,190 200,200 T400,200" fill="none" stroke="#0a3d62" stroke-width="2"/>
    <path d="M0,210 Q100,200 200,210 T400,210" fill="none" stroke="#0a3d62" stroke-width="1.5"/>
  </g>

  <!-- Main icon: Cocktail glass -->
  <g transform="translate(200, 130)">
    <!-- Glass -->
    <path d="M-35,-40 L35,-40 L25,0 L-25,0 Z" fill="url(#glassGrad)" stroke="#0e6e8e" stroke-width="2.5"/>

    <!-- Stem -->
    <rect x="-3" y="0" width="6" height="40" fill="#0e6e8e" rx="3"/>

    <!-- Base -->
    <ellipse cx="0" cy="45" rx="20" ry="5" fill="url(#oceanGradBar)" stroke="#0e6e8e" stroke-width="2"/>

    <!-- Garnish (olive with pick) -->
    <circle cx="0" cy="-25" r="4" fill="#d9b382"/>
    <line x1="0" y1="-40" x2="0" y2="-21" stroke="#d9b382" stroke-width="1.5"/>

    <!-- Bubbles -->
    <circle cx="-10" cy="-15" r="2" fill="#0e6e8e" opacity="0.3"/>
    <circle cx="8" cy="-20" r="1.5" fill="#0e6e8e" opacity="0.3"/>
    <circle cx="5" cy="-10" r="1.5" fill="#0e6e8e" opacity="0.3"/>
  </g>

  <!-- Text -->
  <text x="200" y="260" font-family="Georgia, serif" font-size="14" fill="#0a3d62" text-anchor="middle" opacity="0.7">
    Bar &amp; Lounge
  </text>
</svg>
