<svg xmlns="http://www.w3.org/2000/svg" viewBox="0 0 400 300" width="400" height="300">
  <!-- Italian cuisine icon with maritime theme -->
  <defs>
    <linearGradient id="oceanGradItalian" x1="0%" y1="0%" x2="0%" y2="100%">
      <stop offset="0%" style="stop-color:#0a3d62;stop-opacity:0.08" />
      <stop offset="100%" style="stop-color:#0e6e8e;stop-opacity:0.12" />
    </linearGradient>
  </defs>

  <!-- Background -->
  <rect width="400" height="300" fill="#f7fdff"/>

  <!-- Decorative rope pattern -->
  <g opacity="0.06">
    <circle cx="80" cy="80" r="15" fill="none" stroke="#d9b382" stroke-width="2"/>
    <circle cx="320" cy="80" r="15" fill="none" stroke="#d9b382" stroke-width="2"/>
    <circle cx="80" cy="220" r="15" fill="none" stroke="#d9b382" stroke-width="2"/>
    <circle cx="320" cy="220" r="15" fill="none" stroke="#d9b382" stroke-width="2"/>
  </g>

  <!-- Main icon: Fork and pasta -->
  <g transform="translate(200, 150)">
    <!-- Plate -->
    <ellipse cx="0" cy="15" rx="55" ry="13" fill="url(#oceanGradItalian)"/>
    <ellipse cx="0" cy="15" rx="55" ry="13" fill="none" stroke="#0e6e8e" stroke-width="2"/>

    <!-- Pasta/spaghetti on plate -->
    <g opacity="0.7">
      <path d="M-20,10 Q-15,0 -10,10 Q-5,20 0,10 Q5,0 10,10 Q15,20 20,10"
            fill="none" stroke="#d9b382" stroke-width="2" stroke-linecap="round"/>
      <path d="M-15,5 Q-10,-5 -5,5 Q0,15 5,5 Q10,-5 15,5"
            fill="none" stroke="#d9b382" stroke-width="2" stroke-linecap="round"/>
    </g>

    <!-- Fork -->
    <g transform="translate(-30, -20)">
      <!-- Handle -->
      <rect x="-2" y="-30" width="4" height="50" fill="#0e6e8e" rx="2"/>
      <!-- Tines -->
      <rect x="-10" y="15" width="2" height="12" fill="#0e6e8e" rx="1"/>
      <rect x="-4" y="15" width="2" height="12" fill="#0e6e8e" rx="1"/>
      <rect x="2" y="15" width="2" height="12" fill="#0e6e8e" rx="1"/>
      <rect x="8" y="15" width="2" height="12" fill="#0e6e8e" rx="1"/>
    </g>
  </g>

  <!-- Text -->
  <text x="200" y="260" font-family="Georgia, serif" font-size="14" fill="#0a3d62" text-anchor="middle" opacity="0.7">
    Italian Cuisine
  </text>
</svg>
