<svg xmlns="http://www.w3.org/2000/svg" viewBox="0 0 64 48" fill="none">
  <!-- Tender Boat Icon - Transparent Background -->
  <!-- Water waves -->
  <path d="M2 38c4-2 8 2 12 0s8-2 12 0 8 2 12 0 8-2 12 0 8 2 12 0" stroke="#0077b6" stroke-width="2" stroke-linecap="round" fill="none"/>
  <path d="M0 42c4-2 8 2 12 0s8-2 12 0 8 2 12 0 8-2 12 0 8 2 12 0 4-2 4-2" stroke="#0096c7" stroke-width="1.5" stroke-linecap="round" fill="none" opacity="0.7"/>

  <!-- Boat hull -->
  <path d="M8 32l4 6h40l4-6c0 0-1-8-24-8s-24 8-24 8z" fill="#e07b39"/>
  <path d="M10 32l3 5h38l3-5" fill="#c96a2d"/>

  <!-- Boat deck/cabin base -->
  <rect x="16" y="26" width="32" height="6" rx="1" fill="#f4f4f4"/>
  <rect x="18" y="27" width="28" height="4" rx="1" fill="#e8e8e8"/>

  <!-- Cabin/canopy -->
  <path d="M20 26v-8a2 2 0 012-2h20a2 2 0 012 2v8" fill="#0a3d62"/>
  <rect x="22" y="18" width="6" height="4" rx="0.5" fill="#87ceeb" opacity="0.8"/>
  <rect x="30" y="18" width="6" height="4" rx="0.5" fill="#87ceeb" opacity="0.8"/>
  <rect x="38" y="18" width="4" height="4" rx="0.5" fill="#87ceeb" opacity="0.8"/>

  <!-- Passengers (simplified heads) -->
  <circle cx="24" cy="24" r="2" fill="#d4a574"/>
  <circle cx="30" cy="24" r="2" fill="#8b6914"/>
  <circle cx="36" cy="24" r="2" fill="#d4a574"/>
  <circle cx="42" cy="24" r="2" fill="#6b4423"/>

  <!-- Captain/crew at front -->
  <circle cx="48" cy="28" r="2.5" fill="#d4a574"/>
  <rect x="46" y="30" width="4" height="3" rx="0.5" fill="#fff"/>

  <!-- Railing details -->
  <line x1="14" y1="30" x2="14" y2="26" stroke="#888" stroke-width="0.8"/>
  <line x1="50" y1="30" x2="50" y2="26" stroke="#888" stroke-width="0.8"/>

  <!-- Flag/antenna -->
  <line x1="44" y1="16" x2="44" y2="10" stroke="#333" stroke-width="1"/>
  <path d="M44 10l6 2-6 2z" fill="#e63946"/>
</svg>
