<svg xmlns="http://www.w3.org/2000/svg" viewBox="0 0 400 300" width="400" height="300">
  <!-- Asian cuisine icon with maritime theme -->
  <defs>
    <linearGradient id="oceanGradAsian" x1="0%" y1="0%" x2="0%" y2="100%">
      <stop offset="0%" style="stop-color:#0a3d62;stop-opacity:0.08" />
      <stop offset="100%" style="stop-color:#0e6e8e;stop-opacity:0.12" />
    </linearGradient>
  </defs>

  <!-- Background -->
  <rect width="400" height="300" fill="#f7fdff"/>

  <!-- Subtle wave pattern -->
  <g opacity="0.06">
    <path d="M0,100 Q50,90 100,100 T200,100 T300,100 T400,100" fill="none" stroke="#0a3d62" stroke-width="1"/>
    <path d="M0,120 Q50,110 100,120 T200,120 T300,120 T400,120" fill="none" stroke="#0a3d62" stroke-width="1"/>
    <path d="M0,140 Q50,130 100,140 T200,140 T300,140 T400,140" fill="none" stroke="#0a3d62" stroke-width="1"/>
  </g>

  <!-- Main icon: Chopsticks and bowl -->
  <g transform="translate(200, 140)">
    <!-- Bowl -->
    <ellipse cx="0" cy="20" rx="50" ry="12" fill="url(#oceanGradAsian)"/>
    <path d="M-50,20 Q-50,0 -30,-15 Q0,-25 30,-15 Q50,0 50,20"
          fill="none" stroke="#0e6e8e" stroke-width="2.5" stroke-linecap="round"/>

    <!-- Chopsticks -->
    <g transform="translate(20, -30) rotate(25)">
      <rect x="-2" y="-30" width="2" height="60" fill="#d9b382" rx="1"/>
      <rect x="3" y="-30" width="2" height="60" fill="#d9b382" rx="1"/>
    </g>

    <!-- Decorative circle elements -->
    <circle cx="-35" cy="-5" r="2" fill="#0e6e8e" opacity="0.4"/>
    <circle cx="0" cy="-10" r="2" fill="#0e6e8e" opacity="0.4"/>
    <circle cx="35" cy="-5" r="2" fill="#0e6e8e" opacity="0.4"/>
  </g>

  <!-- Text -->
  <text x="200" y="260" font-family="Georgia, serif" font-size="14" fill="#0a3d62" text-anchor="middle" opacity="0.7">
    Asian Cuisine
  </text>
</svg>
