<svg xmlns="http://www.w3.org/2000/svg" viewBox="0 0 400 300" width="400" height="300">
  <!-- Coffee shop icon with cup -->
  <defs>
    <linearGradient id="oceanGradCoffee" x1="0%" y1="0%" x2="0%" y2="100%">
      <stop offset="0%" style="stop-color:#0a3d62;stop-opacity:0.08" />
      <stop offset="100%" style="stop-color:#0e6e8e;stop-opacity:0.12" />
    </linearGradient>
  </defs>

  <!-- Background -->
  <rect width="400" height="300" fill="#f7fdff"/>

  <!-- Decorative compass rose (subtle) -->
  <g opacity="0.06">
    <circle cx="200" cy="150" r="80" fill="none" stroke="#0a3d62" stroke-width="1"/>
    <circle cx="200" cy="150" r="60" fill="none" stroke="#0a3d62" stroke-width="0.5"/>
    <path d="M200,70 L205,145 L200,150 L195,145 Z" fill="#0a3d62"/>
    <path d="M200,230 L195,155 L200,150 L205,155 Z" fill="#0a3d62"/>
    <path d="M120,150 L195,145 L200,150 L195,155 Z" fill="#0a3d62"/>
    <path d="M280,150 L205,155 L200,150 L205,145 Z" fill="#0a3d62"/>
  </g>

  <!-- Main icon: Coffee cup -->
  <g transform="translate(200, 150)">
    <!-- Cup body -->
    <path d="M-30,-25 L-35,30 Q-35,35 -25,38 L25,38 Q35,35 35,30 L30,-25 Z"
          fill="url(#oceanGradCoffee)" stroke="#0e6e8e" stroke-width="2.5"/>

    <!-- Handle -->
    <path d="M35,0 Q50,0 50,15 Q50,30 35,30"
          fill="none" stroke="#0e6e8e" stroke-width="2.5" stroke-linecap="round"/>

    <!-- Steam lines -->
    <path d="M-10,-30 Q-8,-45 -10,-50" fill="none" stroke="#0e6e8e" stroke-width="1.5" stroke-linecap="round" opacity="0.5"/>
    <path d="M0,-30 Q2,-45 0,-50" fill="none" stroke="#0e6e8e" stroke-width="1.5" stroke-linecap="round" opacity="0.5"/>
    <path d="M10,-30 Q12,-45 10,-50" fill="none" stroke="#0e6e8e" stroke-width="1.5" stroke-linecap="round" opacity="0.5"/>
  </g>

  <!-- Text -->
  <text x="200" y="260" font-family="Georgia, serif" font-size="14" fill="#0a3d62" text-anchor="middle" opacity="0.7">
    Coffee Shop
  </text>
</svg>
