<svg xmlns="http://www.w3.org/2000/svg" viewBox="0 0 400 300" width="400" height="300">
  <!-- Pizza slice icon -->
  <defs>
    <linearGradient id="oceanGradPizza" x1="0%" y1="0%" x2="0%" y2="100%">
      <stop offset="0%" style="stop-color:#0a3d62;stop-opacity:0.08" />
      <stop offset="100%" style="stop-color:#0e6e8e;stop-opacity:0.12" />
    </linearGradient>
  </defs>

  <!-- Background -->
  <rect width="400" height="300" fill="#f7fdff"/>

  <!-- Decorative compass rose (subtle) -->
  <g opacity="0.06">
    <circle cx="200" cy="150" r="80" fill="none" stroke="#0a3d62" stroke-width="1"/>
    <circle cx="200" cy="150" r="60" fill="none" stroke="#0a3d62" stroke-width="0.5"/>
    <path d="M200,70 L205,145 L200,150 L195,145 Z" fill="#0a3d62"/>
    <path d="M200,230 L195,155 L200,150 L205,155 Z" fill="#0a3d62"/>
    <path d="M120,150 L195,145 L200,150 L195,155 Z" fill="#0a3d62"/>
    <path d="M280,150 L205,155 L200,150 L205,145 Z" fill="#0a3d62"/>
  </g>

  <!-- Main icon: Pizza slice -->
  <g transform="translate(200, 150)">
    <!-- Pizza slice triangle -->
    <path d="M0,-40 L-35,45 L35,45 Z"
          fill="url(#oceanGradPizza)" stroke="#0e6e8e" stroke-width="2.5"/>

    <!-- Crust edge -->
    <path d="M-35,45 Q-20,50 0,50 Q20,50 35,45"
          fill="none" stroke="#d9b382" stroke-width="3" stroke-linecap="round"/>

    <!-- Toppings (pepperoni circles) -->
    <circle cx="-10" cy="0" r="5" fill="#0e6e8e" opacity="0.7"/>
    <circle cx="8" cy="5" r="5" fill="#0e6e8e" opacity="0.7"/>
    <circle cx="-5" cy="20" r="5" fill="#0e6e8e" opacity="0.7"/>
    <circle cx="12" cy="25" r="5" fill="#0e6e8e" opacity="0.7"/>
  </g>

  <!-- Text -->
  <text x="200" y="260" font-family="Georgia, serif" font-size="14" fill="#0a3d62" text-anchor="middle" opacity="0.7">
    Pizza
  </text>
</svg>
