<svg xmlns="http://www.w3.org/2000/svg" viewBox="0 0 400 300" width="400" height="300">
  <!-- Steakhouse icon with maritime theme -->
  <defs>
    <linearGradient id="oceanGradSteak" x1="0%" y1="0%" x2="0%" y2="100%">
      <stop offset="0%" style="stop-color:#0a3d62;stop-opacity:0.08" />
      <stop offset="100%" style="stop-color:#0e6e8e;stop-opacity:0.12" />
    </linearGradient>
  </defs>

  <!-- Background -->
  <rect width="400" height="300" fill="#f7fdff"/>

  <!-- Decorative anchor pattern (subtle) -->
  <g opacity="0.05" transform="translate(100, 220)">
    <path d="M0,-15 L0,15 M-10,10 Q-10,15 -5,15 L0,10 M10,10 Q10,15 5,15 L0,10 M-5,-15 L5,-15"
          stroke="#0a3d62" stroke-width="2" fill="none" stroke-linecap="round"/>
  </g>
  <g opacity="0.05" transform="translate(300, 80)">
    <path d="M0,-15 L0,15 M-10,10 Q-10,15 -5,15 L0,10 M10,10 Q10,15 5,15 L0,10 M-5,-15 L5,-15"
          stroke="#0a3d62" stroke-width="2" fill="none" stroke-linecap="round"/>
  </g>

  <!-- Main icon: Knife and fork crossed -->
  <g transform="translate(200, 150)">
    <!-- Plate -->
    <ellipse cx="0" cy="0" rx="60" ry="15" fill="url(#oceanGradSteak)"/>
    <ellipse cx="0" cy="0" rx="60" ry="15" fill="none" stroke="#0e6e8e" stroke-width="2.5"/>

    <!-- Knife (left, rotated) -->
    <g transform="rotate(-45)">
      <rect x="-3" y="-60" width="6" height="70" fill="#0e6e8e" rx="3"/>
      <path d="M-3,10 L0,15 L3,10" fill="#0e6e8e"/>
    </g>

    <!-- Fork (right, rotated) -->
    <g transform="rotate(45)">
      <rect x="-2.5" y="-60" width="5" height="65" fill="#d9b382" rx="2.5"/>
      <rect x="-8" y="0" width="2" height="10" fill="#d9b382" rx="1"/>
      <rect x="-3" y="0" width="2" height="10" fill="#d9b382" rx="1"/>
      <rect x="2" y="0" width="2" height="10" fill="#d9b382" rx="1"/>
      <rect x="7" y="0" width="2" height="10" fill="#d9b382" rx="1"/>
    </g>
  </g>

  <!-- Text -->
  <text x="200" y="260" font-family="Georgia, serif" font-size="14" fill="#0a3d62" text-anchor="middle" opacity="0.7">
    Steakhouse
  </text>
</svg>
